<?xml version="1.0" standalone="no"?>
<!DOCTYPE svg PUBLIC "-//W3C//DTD SVG 20010904//EN"
 "http://www.w3.org/TR/2001/REC-SVG-20010904/DTD/svg10.dtd">
<svg version="1.0" xmlns="http://www.w3.org/2000/svg"
 width="1080.000000pt" height="1080.000000pt" viewBox="0 0 1080.000000 1080.000000"
 preserveAspectRatio="xMidYMid meet">
<metadata>
Created by potrace 1.16, written by Peter Selinger 2001-2019
</metadata>
<g transform="translate(0.000000,1080.000000) scale(0.100000,-0.100000)"
fill="#000000" stroke="none">
<path d="M3135 8445 c-231 -32 -484 -109 -601 -182 -120 -76 -155 -251 -75
-374 16 -24 261 -280 545 -568 284 -288 516 -527 516 -530 0 -4 -96 -103 -214
-220 -160 -159 -218 -211 -229 -205 -8 5 -247 245 -531 534 -284 288 -533 535
-553 547 -121 73 -279 41 -362 -72 -48 -66 -131 -286 -166 -440 -60 -263 -58
-575 5 -855 154 -689 702 -1260 1380 -1440 159 -42 279 -59 460 -67 210 -8
363 11 592 73 67 18 67 18 93 -6 14 -13 25 -31 25 -39 0 -9 -108 -124 -241
-256 -132 -132 -267 -273 -300 -314 -228 -281 -254 -682 -63 -988 246 -393
725 -524 1142 -314 92 47 150 97 430 375 l262 261 238 -244 c270 -278 354
-354 450 -404 147 -77 262 -107 419 -107 337 0 629 179 774 475 65 133 89 238
89 386 0 184 -51 350 -153 499 -17 25 -157 175 -311 333 l-280 288 262 262
c261 261 261 261 303 248 36 -11 78 -48 238 -206 195 -193 195 -193 181 -248
-45 -190 76 -351 265 -351 129 0 106 -20 752 627 494 494 586 590 607 637 75
161 -16 345 -190 386 -55 12 -70 11 -174 -12 -22 -5 -47 17 -208 180 -131 132
-189 198 -204 233 -20 44 -23 69 -28 283 -5 221 -7 238 -29 280 -33 64 -734
762 -866 862 -311 235 -632 362 -1012 398 -144 13 -1180 14 -1230 1 -102 -28
-181 -131 -191 -247 -4 -52 0 -70 23 -123 26 -56 46 -78 217 -232 237 -213
313 -305 421 -502 100 -183 167 -438 167 -637 0 -85 0 -85 -260 -345 -259
-259 -259 -259 -285 -235 -30 28 -31 49 -6 123 52 152 87 435 76 617 -33 526
-215 939 -570 1296 -299 300 -675 490 -1090 549 -151 22 -392 27 -510 10z
m425 -559 c191 -32 276 -59 423 -133 198 -101 375 -249 499 -418 75 -102 181
-315 213 -427 87 -312 69 -640 -52 -925 -33 -77 -37 -98 -38 -168 0 -106 17
-136 152 -276 107 -110 107 -110 -108 -325 -117 -118 -219 -214 -225 -214 -6
0 -58 49 -116 108 -125 130 -172 157 -268 157 -51 0 -86 -8 -160 -37 -191 -74
-324 -100 -505 -100 -312 1 -599 94 -842 275 -169 126 -295 275 -398 469 -64
122 -98 215 -126 347 -34 159 -45 441 -17 441 5 0 181 -173 391 -384 362 -363
386 -385 457 -419 163 -77 329 -77 490 1 65 32 104 65 318 271 134 129 268
263 297 298 101 118 142 243 133 401 -6 101 -30 175 -82 256 -20 32 -192 216
-394 422 -196 201 -358 372 -360 379 -3 13 17 15 115 15 65 0 156 -7 203 -14z
m2705 -266 c209 -13 380 -58 549 -142 179 -89 236 -137 594 -492 312 -310 312
-310 312 -401 1 -207 26 -348 86 -474 53 -114 107 -181 303 -376 100 -99 181
-187 181 -195 0 -16 -408 -430 -424 -430 -5 0 -95 85 -200 188 -194 191 -269
251 -379 303 -111 51 -205 70 -394 76 -171 6 -171 6 -361 197 -190 191 -190
191 -196 451 -7 323 -26 464 -90 665 -58 184 -137 348 -247 514 -38 58 -69
110 -69 115 0 13 151 14 335 1z m-123 -2137 c115 -114 208 -215 208 -224 0 -9
-453 -467 -1007 -1019 -1113 -1107 -1051 -1052 -1182 -1054 -98 -1 -164 26
-227 90 -63 65 -89 130 -88 225 2 131 -53 69 1054 1182 552 554 1010 1007
1019 1007 9 0 109 -93 223 -207z m205 -1555 c198 -200 267 -276 288 -318 103
-204 -42 -443 -270 -445 -130 0 -137 5 -442 309 -150 149 -273 275 -273 281 0
10 420 435 430 435 4 0 123 -118 267 -262z"/>
<path d="M5955 5120 c3 -5 11 -10 16 -10 6 0 7 5 4 10 -3 6 -11 10 -16 10 -6
0 -7 -4 -4 -10z"/>
</g>
</svg>
