<?xml version="1.0" standalone="no"?>
<!DOCTYPE svg PUBLIC "-//W3C//DTD SVG 20010904//EN"
 "http://www.w3.org/TR/2001/REC-SVG-20010904/DTD/svg10.dtd">
<svg version="1.0" xmlns="http://www.w3.org/2000/svg"
 width="1024.000000pt" height="1024.000000pt" viewBox="0 0 1024.000000 1024.000000"
 preserveAspectRatio="xMidYMid meet">
<metadata>
Created by potrace 1.16, written by Peter Selinger 2001-2019
</metadata>
<g transform="translate(0.000000,1024.000000) scale(0.100000,-0.100000)"
fill="white" stroke="none">
<path d="M3500 7519 c-160 -24 -340 -95 -487 -191 -234 -154 -436 -411 -523
-668 -60 -178 -63 -203 -67 -645 -4 -396 -3 -411 16 -442 43 -69 -196 -63
2696 -61 2617 3 2617 3 2650 39 45 50 49 92 42 507 -6 364 -12 421 -71 597
-141 418 -477 730 -916 847 -85 23 -85 23 -1685 24 -880 1 -1625 -2 -1655 -7z
m3243 -385 c299 -73 558 -319 656 -623 37 -114 45 -189 46 -406 0 -210 0 -210
-2322 -213 -2323 -2 -2323 -2 -2324 45 -10 310 -2 414 37 551 105 363 435 637
793 659 96 5 96 5 51 -28 -120 -87 -154 -116 -211 -177 -68 -72 -109 -133
-162 -237 -60 -120 -117 -337 -117 -446 0 -49 0 -49 1930 -49 1930 0 1930 0
1930 39 0 106 -58 328 -116 443 -78 156 -226 321 -363 405 -48 30 -77 53 -69
57 21 8 177 -4 241 -20z"/>
<path d="M2610 5207 c-13 -7 -35 -28 -47 -46 -23 -35 -23 -35 -21 -995 3 -961
3 -961 34 -1047 60 -168 166 -289 319 -364 142 -70 -25 -65 2220 -65 2224 0
2098 -3 2227 60 170 83 292 231 345 420 17 61 18 125 18 1015 0 926 0 951 -20
979 -39 58 -12 56 -909 56 l-824 0 -4 -302 c-5 -335 -9 -360 -74 -497 -170
-361 -510 -578 -837 -533 -246 33 -445 163 -592 387 -133 203 -155 298 -155
681 0 264 0 264 -827 264 -642 0 -834 -3 -853 -13z m652 -1169 c3 -803 3 -803
26 -853 13 -27 37 -64 54 -82 41 -42 30 -46 -110 -41 -157 6 -236 49 -286 158
-21 44 -21 58 -24 833 -3 787 -3 787 167 787 171 0 171 0 173 -802z m4058 31
c0 -509 -4 -784 -11 -812 -17 -67 -69 -131 -135 -163 -51 -25 -67 -28 -169
-28 -63 -1 -117 2 -121 7 -4 4 4 20 19 35 14 15 36 50 49 77 23 50 23 50 26
840 1 435 4 796 7 803 3 9 47 12 170 12 165 0 165 0 165 -771z"/>
<path d="M4983 5150 c-119 -60 -188 -170 -188 -300 0 -65 5 -85 33 -142 19
-39 49 -81 72 -101 40 -34 40 -34 40 -231 0 -196 0 -196 176 -194 176 3 176 3
175 193 -2 190 -2 190 40 230 148 143 156 343 18 482 -63 65 -118 87 -219 91
-79 3 -90 1 -147 -28z"/>
</g>
</svg>
